{
    "asset" : {
        "generator" : "Khronos glTF Blender I/O v1.4.40",
        "version" : "2.0"
    },
    "scene" : 0,
    "scenes" : [
        {
            "name" : "Scene",
            "nodes" : [
                5
            ]
        }
    ],
    "nodes" : [
        {
            "mesh" : 0,
            "name" : "Cylinder.001"
        },
        {
            "mesh" : 1,
            "name" : "Cylinder.002"
        },
        {
            "mesh" : 2,
            "name" : "Sphere.002"
        },
        {
            "mesh" : 3,
            "name" : "Sphere.003"
        },
        {
            "children" : [
                0,
                1,
                2,
                3
            ],
            "mesh" : 4,
            "name" : "Body.001"
        },
        {
            "children" : [
                4
            ],
            "name" : "Empty.002"
        }
    ],
    "materials" : [
        {
            "doubleSided" : true,
            "name" : "RocketPod.001",
            "pbrMetallicRoughness" : {
                "baseColorFactor" : [
                    0.8000000715255737,
                    0.5685832500457764,
                    0.18025805056095123,
                    1
                ],
                "metallicFactor" : 0,
                "roughnessFactor" : 0.5
            }
        },
        {
            "doubleSided" : true,
            "name" : "RocketPod.003",
            "pbrMetallicRoughness" : {
                "baseColorFactor" : [
                    0.8000000715255737,
                    0.5685832500457764,
                    0.18025805056095123,
                    1
                ],
                "metallicFactor" : 0,
                "roughnessFactor" : 0.5
            }
        },
        {
            "doubleSided" : true,
            "name" : "RocketPod.002",
            "pbrMetallicRoughness" : {
                "baseColorFactor" : [
                    0.8000000715255737,
                    0.5685832500457764,
                    0.18025805056095123,
                    1
                ],
                "metallicFactor" : 0,
                "roughnessFactor" : 0.5
            }
        },
        {
            "doubleSided" : true,
            "name" : "RocketPod.004",
            "pbrMetallicRoughness" : {
                "baseColorFactor" : [
                    0.8000000715255737,
                    0.5685832500457764,
                    0.18025805056095123,
                    1
                ],
                "metallicFactor" : 0,
                "roughnessFactor" : 0.5
            }
        },
        {
            "doubleSided" : true,
            "name" : "Body.001",
            "pbrMetallicRoughness" : {
                "baseColorFactor" : [
                    0.5814675092697144,
                    0.2063978910446167,
                    0.035979263484478,
                    1
                ],
                "metallicFactor" : 0,
                "roughnessFactor" : 0.5
            }
        }
    ],
    "meshes" : [
        {
            "name" : "Cylinder.003",
            "primitives" : [
                {
                    "attributes" : {
                        "POSITION" : 0,
                        "NORMAL" : 1,
                        "TEXCOORD_0" : 2
                    },
                    "indices" : 3,
                    "material" : 0
                }
            ]
        },
        {
            "name" : "Cylinder.004",
            "primitives" : [
                {
                    "attributes" : {
                        "POSITION" : 4,
                        "NORMAL" : 5,
                        "TEXCOORD_0" : 6
                    },
                    "indices" : 3,
                    "material" : 1
                }
            ]
        },
        {
            "name" : "Sphere.002",
            "primitives" : [
                {
                    "attributes" : {
                        "POSITION" : 7,
                        "NORMAL" : 8,
                        "TEXCOORD_0" : 9
                    },
                    "indices" : 10,
                    "material" : 2
                }
            ]
        },
        {
            "name" : "Sphere.003",
            "primitives" : [
                {
                    "attributes" : {
                        "POSITION" : 11,
                        "NORMAL" : 12,
                        "TEXCOORD_0" : 13
                    },
                    "indices" : 10,
                    "material" : 3
                }
            ]
        },
        {
            "name" : "Body.001",
            "primitives" : [
                {
                    "attributes" : {
                        "POSITION" : 14,
                        "NORMAL" : 15,
                        "TEXCOORD_0" : 16
                    },
                    "indices" : 17,
                    "material" : 4
                }
            ]
        }
    ],
    "accessors" : [
        {
            "bufferView" : 0,
            "componentType" : 5126,
            "count" : 26,
            "max" : [
                0.7999995946884155,
                0.20000013709068298,
                -0.6999995708465576
            ],
            "min" : [
                -0.8000006079673767,
                -0.20000013709068298,
                -1.1000005006790161
            ],
            "type" : "VEC3"
        },
        {
            "bufferView" : 1,
            "componentType" : 5126,
            "count" : 26,
            "type" : "VEC3"
        },
        {
            "bufferView" : 2,
            "componentType" : 5126,
            "count" : 26,
            "type" : "VEC2"
        },
        {
            "bufferView" : 3,
            "componentType" : 5123,
            "count" : 66,
            "type" : "SCALAR"
        },
        {
            "bufferView" : 4,
            "componentType" : 5126,
            "count" : 26,
            "max" : [
                0.8000006079673767,
                0.20000013709068298,
                1.1000005006790161
            ],
            "min" : [
                -0.7999995946884155,
                -0.20000013709068298,
                0.6999995708465576
            ],
            "type" : "VEC3"
        },
        {
            "bufferView" : 5,
            "componentType" : 5126,
            "count" : 26,
            "type" : "VEC3"
        },
        {
            "bufferView" : 6,
            "componentType" : 5126,
            "count" : 26,
            "type" : "VEC2"
        },
        {
            "bufferView" : 7,
            "componentType" : 5126,
            "count" : 44,
            "max" : [
                0.9999995231628418,
                0.20000000298023224,
                -0.7000004649162292
            ],
            "min" : [
                0.7999994158744812,
                -0.19999991357326508,
                -1.1000003814697266
            ],
            "type" : "VEC3"
        },
        {
            "bufferView" : 8,
            "componentType" : 5126,
            "count" : 44,
            "type" : "VEC3"
        },
        {
            "bufferView" : 9,
            "componentType" : 5126,
            "count" : 44,
            "type" : "VEC2"
        },
        {
            "bufferView" : 10,
            "componentType" : 5123,
            "count" : 168,
            "type" : "SCALAR"
        },
        {
            "bufferView" : 11,
            "componentType" : 5126,
            "count" : 44,
            "max" : [
                1.0000004768371582,
                0.20000000298023224,
                1.0999994277954102
            ],
            "min" : [
                0.8000004291534424,
                -0.19999991357326508,
                0.6999996304512024
            ],
            "type" : "VEC3"
        },
        {
            "bufferView" : 12,
            "componentType" : 5126,
            "count" : 44,
            "type" : "VEC3"
        },
        {
            "bufferView" : 13,
            "componentType" : 5126,
            "count" : 44,
            "type" : "VEC2"
        },
        {
            "bufferView" : 14,
            "componentType" : 5126,
            "count" : 91,
            "max" : [
                1.0994762182235718,
                0.4000000059604645,
                0.8499999642372131
            ],
            "min" : [
                -0.7386806607246399,
                -0.4000000059604645,
                -0.8499999642372131
            ],
            "type" : "VEC3"
        },
        {
            "bufferView" : 15,
            "componentType" : 5126,
            "count" : 91,
            "type" : "VEC3"
        },
        {
            "bufferView" : 16,
            "componentType" : 5126,
            "count" : 91,
            "type" : "VEC2"
        },
        {
            "bufferView" : 17,
            "componentType" : 5123,
            "count" : 240,
            "type" : "SCALAR"
        }
    ],
    "bufferViews" : [
        {
            "buffer" : 0,
            "byteLength" : 312,
            "byteOffset" : 0
        },
        {
            "buffer" : 0,
            "byteLength" : 312,
            "byteOffset" : 312
        },
        {
            "buffer" : 0,
            "byteLength" : 208,
            "byteOffset" : 624
        },
        {
            "buffer" : 0,
            "byteLength" : 132,
            "byteOffset" : 832
        },
        {
            "buffer" : 0,
            "byteLength" : 312,
            "byteOffset" : 964
        },
        {
            "buffer" : 0,
            "byteLength" : 312,
            "byteOffset" : 1276
        },
        {
            "buffer" : 0,
            "byteLength" : 208,
            "byteOffset" : 1588
        },
        {
            "buffer" : 0,
            "byteLength" : 528,
            "byteOffset" : 1796
        },
        {
            "buffer" : 0,
            "byteLength" : 528,
            "byteOffset" : 2324
        },
        {
            "buffer" : 0,
            "byteLength" : 352,
            "byteOffset" : 2852
        },
        {
            "buffer" : 0,
            "byteLength" : 336,
            "byteOffset" : 3204
        },
        {
            "buffer" : 0,
            "byteLength" : 528,
            "byteOffset" : 3540
        },
        {
            "buffer" : 0,
            "byteLength" : 528,
            "byteOffset" : 4068
        },
        {
            "buffer" : 0,
            "byteLength" : 352,
            "byteOffset" : 4596
        },
        {
            "buffer" : 0,
            "byteLength" : 1092,
            "byteOffset" : 4948
        },
        {
            "buffer" : 0,
            "byteLength" : 1092,
            "byteOffset" : 6040
        },
        {
            "buffer" : 0,
            "byteLength" : 728,
            "byteOffset" : 7132
        },
        {
            "buffer" : 0,
            "byteLength" : 480,
            "byteOffset" : 7860
        }
    ],
    "buffers" : [
        {
            "byteLength" : 8340,
            "uri" : "data:application/octet-stream;base64,"
        }
    ]
}
